<?xml version="1.0" standalone="no"?>
<!DOCTYPE svg PUBLIC "-//W3C//DTD SVG 20010904//EN"
 "http://www.w3.org/TR/2001/REC-SVG-20010904/DTD/svg10.dtd">
<svg version="1.0" xmlns="http://www.w3.org/2000/svg"
 width="517.000000pt" height="517.000000pt" viewBox="0 0 517.000000 517.000000"
 preserveAspectRatio="xMidYMid meet">
<metadata>
Created by potrace 1.14, written by Peter Selinger 2001-2017
</metadata>
<g transform="translate(0.000000,517.000000) scale(0.100000,-0.100000)"
fill="#000000" stroke="none">
<path d="M2149 5156 c-2 -2 -29 -6 -59 -10 -245 -27 -561 -142 -790 -287 -402
-256 -714 -702 -870 -1246 -25 -87 -52 -158 -78 -201 -59 -100 -135 -263 -169
-361 -20 -60 -62 -221 -67 -262 -3 -19 -10 -67 -16 -108 -24 -149 -17 -420 15
-601 28 -161 123 -431 199 -565 185 -329 404 -567 718 -782 48 -32 109 -79
135 -104 207 -193 534 -391 803 -487 137 -49 301 -91 440 -111 200 -30 549
-33 691 -6 13 3 35 7 49 10 14 2 36 7 50 9 290 49 668 222 910 415 148 119
316 306 435 486 71 108 276 514 356 705 43 101 104 300 125 405 9 44 24 132
28 165 3 19 8 58 12 85 10 73 12 410 2 469 -4 28 -10 74 -13 101 -3 28 -7 57
-10 65 -2 8 -7 29 -10 45 -9 57 -14 78 -31 134 -9 31 -18 66 -20 77 -17 95
-130 358 -217 507 -30 50 -78 139 -107 197 -133 266 -328 507 -560 693 -178
144 -537 310 -763 353 -64 12 -92 21 -204 65 -153 61 -290 99 -483 134 -66 12
-490 21 -501 11z m731 -760 c19 -3 53 -8 75 -11 49 -6 69 -10 165 -30 155 -34
415 -230 636 -480 151 -171 252 -314 339 -477 114 -219 174 -404 230 -718 12
-66 16 -385 5 -438 -25 -134 -232 -482 -389 -656 -52 -57 -173 -175 -222 -216
-184 -154 -476 -300 -724 -361 -306 -75 -681 -91 -925 -38 -25 5 -56 12 -70
14 -53 10 -246 68 -275 83 -163 83 -411 337 -572 584 -162 249 -289 560 -327
798 -3 19 -8 46 -12 60 -10 42 -13 391 -3 460 5 36 12 83 15 105 19 144 120
401 222 565 25 41 48 77 52 80 3 3 19 24 36 47 71 98 168 196 303 306 52 42
173 114 270 160 192 90 410 149 612 163 52 4 95 7 96 8 6 5 432 -3 463 -8z"/>
</g>
</svg>
